<svg class="styles_Logo__2z7sI styles_size-classic__JOoaR styles_theme-black__MLovs" role="img" width="132" height="20" viewBox="0 0 132 20" fill="none" xmlns="http://www.w3.org/2000/svg"><title>Wethenew: the leading site for sneakers</title><g clip-path="url(#clip0_3123_4765)"><path d="M34.285 13.0815H35.8591C35.9843 11.3217 35.7911 9.79194 35.2867 8.49584C34.7787 7.19975 34.006 6.19573 32.9614 5.4838C31.9168 4.77186 30.6469 4.41406 29.1551 4.41406C27.7421 4.41406 26.4972 4.739 25.424 5.39252C24.3472 6.04605 23.5101 6.96244 22.9056 8.149C22.301 9.33192 22.0005 10.7266 22.0005 12.333C22.0005 13.819 22.3081 15.137 22.927 16.2797C23.5459 17.4225 24.4045 18.3169 25.5063 18.9595C26.6081 19.6021 27.8888 19.927 29.3447 19.927C30.7327 19.927 31.9991 19.5583 33.151 18.8244C34.3029 18.0906 35.1543 17.061 35.7052 15.7357L32.5321 14.7573C32.2209 15.4363 31.7773 15.9584 31.205 16.3162C30.6326 16.674 29.9493 16.8529 29.1587 16.8529C27.9317 16.8529 26.998 16.444 26.3577 15.6298C25.8568 14.9873 25.5492 14.1402 25.4419 13.0851H32.6752L34.285 13.0815ZM29.2875 7.28737C30.4501 7.28737 31.3051 7.65612 31.8453 8.38997C32.2317 8.91206 32.4821 9.64955 32.5965 10.6061H25.517C25.6637 9.75543 25.9427 9.0654 26.3541 8.53235C26.9944 7.69993 27.9711 7.28737 29.2875 7.28737Z" fill="#080808"></path><path d="M46.8774 7.39688V4.8266H42.6526V-0.072998H39.4545V4.8266H36.843V7.39688H39.4545V13.5196C39.4545 14.3556 39.4616 15.1041 39.4795 15.7649C39.4974 16.4257 39.6691 17.0756 39.9982 17.7109C40.3703 18.4082 40.9176 18.9193 41.6366 19.2406C42.3557 19.5619 43.1713 19.7335 44.0835 19.7591C44.9958 19.781 45.9259 19.7006 46.8774 19.5217V16.7726C45.9795 16.9077 45.1782 16.9442 44.477 16.8821C43.7759 16.82 43.2643 16.5133 42.9424 15.9694C42.7742 15.6882 42.6812 15.3268 42.6705 14.8814C42.6562 14.4359 42.649 13.9212 42.649 13.3297V7.39688H46.8774Z" fill="#080808"></path><path d="M62.2956 9.9343C62.2384 9.3684 62.1096 8.76599 61.9164 8.13073C61.7197 7.49546 61.4192 6.8967 61.0114 6.33445C60.6035 5.7722 60.0526 5.30853 59.3586 4.94708C58.6646 4.58564 57.7846 4.40309 56.7186 4.40309C55.3663 4.40309 54.2287 4.70612 53.3058 5.30853C52.8085 5.63346 52.3793 6.01682 52.0144 6.45858V-0.072998H49.1489V19.5181H52.4007V11.9679C52.4007 11.0698 52.4973 10.3323 52.6941 9.75541C52.8908 9.17855 53.1484 8.72583 53.4739 8.39359C53.7995 8.06136 54.1608 7.8277 54.5614 7.69261C54.9621 7.55752 55.3663 7.48816 55.7741 7.48816C56.5397 7.48816 57.1443 7.6561 57.595 7.99199C58.0422 8.32788 58.382 8.75504 58.6074 9.27713C58.8328 9.79922 58.9794 10.3396 59.0403 10.9018C59.1011 11.4641 59.1333 11.9752 59.1333 12.4389V19.5144H62.3851V11.3107C62.3851 10.9602 62.3564 10.5002 62.2956 9.9343Z" fill="#080808"></path><path d="M76.8839 13.0815H78.4579C78.5831 11.3217 78.3899 9.79194 77.8855 8.49584C77.3776 7.19975 76.6049 6.19573 75.5603 5.4838C74.5157 4.77186 73.2458 4.41406 71.754 4.41406C70.341 4.41406 69.0961 4.739 68.0229 5.39252C66.9461 6.04605 66.109 6.96244 65.5044 8.149C64.8999 9.33192 64.5994 10.7266 64.5994 12.333C64.5994 13.819 64.907 15.137 65.5259 16.2797C66.1448 17.4225 67.0033 18.3169 68.1051 18.9595C69.207 19.6021 70.4876 19.927 71.9436 19.927C73.3316 19.927 74.598 19.5583 75.7499 18.8244C76.9018 18.0906 77.7532 17.061 78.3041 15.7357L75.131 14.7573C74.8198 15.4363 74.3762 15.9584 73.8038 16.3162C73.2314 16.674 72.5482 16.8529 71.7576 16.8529C70.5306 16.8529 69.5969 16.444 68.9565 15.6298C68.4557 14.9873 68.1481 14.1402 68.0407 13.0851H75.2741L76.8839 13.0815ZM71.8864 7.28737C73.049 7.28737 73.904 7.65612 74.4442 8.38997C74.8305 8.91206 75.0809 9.64955 75.1954 10.6061H68.1159C68.2625 9.75543 68.5416 9.0654 68.953 8.53235C69.5933 7.69993 70.5699 7.28737 71.8864 7.28737Z" fill="#080808"></path><path d="M93.862 9.93429C93.8048 9.36839 93.676 8.76598 93.4828 8.13071C93.2861 7.49545 92.9856 6.89669 92.5778 6.33444C92.1699 5.77219 91.619 5.30852 90.925 4.94707C90.231 4.58562 89.351 4.40308 88.285 4.40308C86.9327 4.40308 85.7951 4.70611 84.8722 5.30852C84.3749 5.63345 83.9457 6.0168 83.5808 6.45857V4.82659H80.7153V19.5217H83.9671V11.9679C83.9671 11.0697 84.0637 10.3322 84.2605 9.75539C84.4572 9.17854 84.7148 8.72582 85.0403 8.39358C85.3659 8.06134 85.7272 7.82768 86.1278 7.6926C86.5285 7.55751 86.9327 7.48814 87.3405 7.48814C88.1061 7.48814 88.7107 7.65609 89.1614 7.99198C89.6086 8.32787 89.9484 8.75503 90.1738 9.27712C90.3992 9.79921 90.5458 10.3395 90.6067 10.9018C90.6675 11.464 90.6997 11.9752 90.6997 12.4389V19.5144H93.9515V11.3107C93.9479 10.9602 93.9193 10.5002 93.862 9.93429Z" fill="#080808"></path><path d="M108.458 13.0815H110.032C110.157 11.3217 109.964 9.79194 109.459 8.49584C108.951 7.19975 108.179 6.19573 107.134 5.4838C106.089 4.77186 104.819 4.41406 103.328 4.41406C101.915 4.41406 100.67 4.739 99.5966 5.39252C98.5198 6.04605 97.6827 6.96244 97.0782 8.149C96.4736 9.33192 96.1731 10.7266 96.1731 12.333C96.1731 13.819 96.4808 15.137 97.0996 16.2797C97.7185 17.4225 98.5771 18.3169 99.6789 18.9595C100.781 19.6021 102.061 19.927 103.517 19.927C104.905 19.927 106.172 19.5583 107.324 18.8244C108.476 18.0906 109.327 17.061 109.878 15.7357L106.705 14.7573C106.394 15.4363 105.95 15.9584 105.378 16.3162C104.805 16.674 104.122 16.8529 103.331 16.8529C102.104 16.8529 101.171 16.444 100.53 15.6298C100.029 14.9873 99.7218 14.1402 99.6145 13.0851H106.844L108.458 13.0815ZM103.457 7.28737C104.619 7.28737 105.474 7.65612 106.014 8.38997C106.401 8.91206 106.651 9.64955 106.766 10.6061H99.6896C99.8363 9.75543 100.115 9.0654 100.527 8.53235C101.163 7.69993 102.144 7.28737 103.457 7.28737Z" fill="#080808"></path><path d="M5.29802 19.4598C4.94028 19.4598 4.6219 19.2188 4.511 18.8647L0.0715332 4.84129L3.38057 4.83398L6.33902 14.217L9.1508 5.42544C9.26528 5.0713 9.58008 4.83398 9.93782 4.83398H11.587C11.9447 4.83398 12.2631 5.0713 12.374 5.42544L15.1715 14.217L18.1442 4.83398H21.4533L17.0174 18.8683C16.9065 19.2224 16.5881 19.4598 16.2303 19.4598H14.7779C14.4274 19.4598 14.1126 19.2297 13.9981 18.8866L10.757 9.40134L7.53027 18.8866C7.41222 19.2297 7.10099 19.4598 6.75041 19.4598H5.29802Z" fill="#080808"></path><path d="M115.916 19.4598C115.559 19.4598 115.24 19.2188 115.129 18.8647L110.69 4.84129L113.999 4.83398L116.957 14.217L119.769 5.42544C119.884 5.0713 120.198 4.83398 120.556 4.83398H122.205C122.563 4.83398 122.881 5.0713 122.992 5.42544L125.79 14.217L128.763 4.83398H132.072L127.636 18.8683C127.525 19.2224 127.206 19.4598 126.849 19.4598H125.396C125.046 19.4598 124.731 19.2297 124.616 18.8866L121.375 9.40134L118.149 18.8866C118.031 19.2297 117.719 19.4598 117.369 19.4598H115.916Z" fill="#080808"></path></g><defs><clipPath id="clip0_3123_4765"><rect width="132" height="20" fill="white"></rect></clipPath></defs></svg>